# xmcd
#
# Track frame offsets: 
#        150
#        21183
#        36248
#        54252
#        73215
#        84743
#        104232
#        118396
#        125326
#        144778
#        158714
#        175889
#        189978
#
# Disc length: 2772 seconds
#
# Revision: 0
# Processed by: cddbd v1.5.2PL0 Copyright (c) Steve Scherf et al.
# Submitted via: ExactAudioCopyFreeDBPlugin 1.0
#
DISCID=b70ad20d
DTITLE=UpSouth Twisters - The UpSouth Twisters
DYEAR=2007
DGENRE=Country
TTITLE0=Smithville Blues
TTITLE1=Where's My Money
TTITLE2=It's A Poor Rat
TTITLE3=Amede
TTITLE4=Do You Ever Think Of Me
TTITLE5=Voodoo Mambo
TTITLE6=If The Phone Don't Ring
TTITLE7=Holiday Depression
TTITLE8=Rattlesnake Fever
TTITLE9=It's A Cryin' Shame
TTITLE10=Jolie Fi
TTITLE11=I Wonder Why
TTITLE12=Valentine's Day
EXTD=
EXTT0=
EXTT1=
EXTT2=
EXTT3=
EXTT4=
EXTT5=
EXTT6=
EXTT7=
EXTT8=
EXTT9=
EXTT10=
EXTT11=
EXTT12=
PLAYORDER=
